# xmcd
#
# Track frame offsets:
# 150
# 14142
# 29322
# 45119
# 59312
# 76757
# 90006
# 110952
# 121816
# 138958
# 151916
# 167557
#
# Disc length: 2502 seconds
#
#
# Revision: 0
# Processed by: cddbd v1.5.1PL0 Copyright (c) Steve Scherf et al.
# Submitted via: FreeRIP 2.70 
#
DISCID=8509c40c
DTITLE=Charles Lawrence - Daylight Hours
DYEAR=2004
DGENRE=Country
TTITLE0=Hill Country Hippy
TTITLE1=Rio Grande Valley
TTITLE2=For Life
TTITLE3=Daylight Hours
TTITLE4=Ilsa and Paul
TTITLE5=The World Spins Round
TTITLE6=Mexican Riviera
TTITLE7=Vertigo
TTITLE8=Trail of Tears
TTITLE9=Pintails and Teal
TTITLE10=Turn the Other Cheek
TTITLE11=March
EXTD=
EXTT0=
EXTT1=
EXTT2=
EXTT3=
EXTT4=
EXTT5=
EXTT6=
EXTT7=
EXTT8=
EXTT9=
EXTT10=
EXTT11=
PLAYORDER=
